<?xml version="1.0" encoding="utf-8"?>
<!-- Generator: Adobe Illustrator 19.2.1, SVG Export Plug-In . SVG Version: 6.00 Build 0)  -->
<svg version="1.1" id="Layer_1" xmlns="http://www.w3.org/2000/svg" xmlns:xlink="http://www.w3.org/1999/xlink" x="0px" y="0px"
	 viewBox="0 0 73.9 73.9" style="enable-background:new 0 0 73.9 73.9;" xml:space="preserve">
<style type="text/css">
	.st0{fill:#FFFFFF;}
</style>
<g>
	<path class="st0" d="M24.8,62.5L24.8,62.5c0.2,1,1,1.8,2.1,1.8c1.1,0,2-0.9,2.1-2l0,0c0-5.3,0-5.3,0-10.1l-4.1-5.6
		C24.8,53.2,24.8,55.9,24.8,62.5z"/>
	<path class="st0" d="M36.9,0C16.5,0,0,16.5,0,36.9c0,20.4,16.5,36.9,36.9,36.9c20.4,0,36.9-16.5,36.9-36.9C73.9,16.5,57.3,0,36.9,0
		z M36.9,70C18.7,70,3.9,55.2,3.9,36.9c0-9.2,3.7-17.5,9.8-23.5c0.1,0.1,0.3,0.2,0.4,0.2c3.6,1.5,7.1,2.9,10.7,4.4l12.4,5.1h0
		c5,2.1,10,4.1,14.9,6.2c0.6,0.3,1.2,0.5,1.8,0.8C46,33.4,38,36.7,30,40l-5.3,2.2l-0.7,0.3c-1.1,0.5-2.3,0.9-3.4,1.4
		c-2.2,0.9-4.4,1.8-6.6,2.7c-1,0.4-1.8,1.4-1.4,2.5c0.3,1,1.5,1.9,2.5,1.4c3.2-1.3,6.4-2.6,9.6-4l4.1,1.7v0c0.9,0.4,1.9,0.8,2.8,1.2
		l0.6,0.3c6.1,2.5,12.3,5.1,18.4,7.6l0.8,0.3c0.2,0.1,0.4,0.1,0.5,0.2c0.6,0.3,1.2,0.5,1.8,0.8l1.2,0.5l2.4,1h0l0.8,0.3l0,0
		c0.1,0,0.1,0.1,0.2,0.1l1,0.4C53.7,66.6,45.7,70,36.9,70z M62.7,57.7l-3.7-1.5c-9.6-4-19.2-7.9-28.8-11.9l1.4-0.6
		c0.3-0.1,0.7-0.3,1-0.4l1.2-0.5c6.5-2.7,13-5.3,19.4-8c2.2-0.9,4.4-1.8,6.6-2.7c0.9-0.4,1.5-1.1,1.5-2c0-0.9-0.6-1.7-1.5-2
		c-12.7-5.2-25.4-10.5-38.1-15.7c-1.6-0.6-3.1-1.3-4.7-1.9c5.5-4.2,12.4-6.6,19.9-6.6C55.2,3.9,70,18.7,70,36.9
		C70,44.8,67.2,52,62.7,57.7z"/>
	<path class="st0" d="M24.8,34l0,1c0.1,1,1,1.8,2,1.8c1.1,0,2-0.9,2.1-2l0-1c0-4.6,0-6.5,0-10.1l-4.1-5.6
		C24.8,24.7,24.8,27.4,24.8,34z"/>
</g>
</svg>
